<mxfile host="app.diagrams.net" modified="2021-04-16T08:32:44.009Z" agent="5.0 (Macintosh; Intel Mac OS X 10_15_2) AppleWebKit/537.36 (KHTML, like Gecko) Chrome/89.0.4389.114 Safari/537.36" etag="CZfQxmP3llPoAdA99itx" version="14.5.10" type="github">
  <diagram id="yU_PAYL3Pb8YkwEpZ1Nd" name="第 1 页">
    <mxGraphModel dx="2066" dy="1154" grid="1" gridSize="10" guides="1" tooltips="1" connect="1" arrows="1" fold="1" page="1" pageScale="1" pageWidth="827" pageHeight="1169" math="0" shadow="0">
      <root>
        <mxCell id="0" />
        <mxCell id="1" parent="0" />
        <mxCell id="M4EbiJTwBJD6p72lbv5u-17" value="" style="rounded=0;whiteSpace=wrap;html=1;shadow=1;" vertex="1" parent="1">
          <mxGeometry x="450" y="200" width="140" height="390" as="geometry" />
        </mxCell>
        <mxCell id="M4EbiJTwBJD6p72lbv5u-15" value="" style="whiteSpace=wrap;html=1;shadow=1;" vertex="1" parent="1">
          <mxGeometry x="15" y="202.5" width="210" height="385" as="geometry" />
        </mxCell>
        <mxCell id="M4EbiJTwBJD6p72lbv5u-1" value="SET 1" style="shape=cylinder3;whiteSpace=wrap;html=1;boundedLbl=1;backgroundOutline=1;size=15;" vertex="1" parent="1">
          <mxGeometry x="90" y="240" width="60" height="80" as="geometry" />
        </mxCell>
        <mxCell id="M4EbiJTwBJD6p72lbv5u-2" value="SET 2" style="shape=cylinder3;whiteSpace=wrap;html=1;boundedLbl=1;backgroundOutline=1;size=15;" vertex="1" parent="1">
          <mxGeometry x="90" y="350" width="60" height="80" as="geometry" />
        </mxCell>
        <mxCell id="M4EbiJTwBJD6p72lbv5u-3" value="SET 3" style="shape=cylinder3;whiteSpace=wrap;html=1;boundedLbl=1;backgroundOutline=1;size=15;" vertex="1" parent="1">
          <mxGeometry x="90" y="470" width="60" height="80" as="geometry" />
        </mxCell>
        <mxCell id="M4EbiJTwBJD6p72lbv5u-4" value="SET 1" style="shape=cylinder3;whiteSpace=wrap;html=1;boundedLbl=1;backgroundOutline=1;size=15;" vertex="1" parent="1">
          <mxGeometry x="480" y="270" width="60" height="80" as="geometry" />
        </mxCell>
        <mxCell id="M4EbiJTwBJD6p72lbv5u-5" value="SET 2" style="shape=cylinder3;whiteSpace=wrap;html=1;boundedLbl=1;backgroundOutline=1;size=15;" vertex="1" parent="1">
          <mxGeometry x="485" y="410" width="60" height="80" as="geometry" />
        </mxCell>
        <mxCell id="M4EbiJTwBJD6p72lbv5u-19" value="" style="shape=flexArrow;endArrow=classic;html=1;entryX=0;entryY=0.526;entryDx=0;entryDy=0;entryPerimeter=0;" edge="1" parent="1" target="M4EbiJTwBJD6p72lbv5u-17">
          <mxGeometry width="50" height="50" relative="1" as="geometry">
            <mxPoint x="230" y="405" as="sourcePoint" />
            <mxPoint x="280" y="360" as="targetPoint" />
          </mxGeometry>
        </mxCell>
        <mxCell id="M4EbiJTwBJD6p72lbv5u-20" value="数据迁移" style="text;html=1;align=center;verticalAlign=middle;resizable=0;points=[];autosize=1;strokeColor=none;" vertex="1" parent="1">
          <mxGeometry x="300" y="370" width="60" height="20" as="geometry" />
        </mxCell>
        <mxCell id="M4EbiJTwBJD6p72lbv5u-23" value="DB A" style="text;html=1;strokeColor=none;fillColor=none;align=center;verticalAlign=middle;whiteSpace=wrap;rounded=0;shadow=1;" vertex="1" parent="1">
          <mxGeometry x="100" y="210" width="40" height="20" as="geometry" />
        </mxCell>
        <mxCell id="M4EbiJTwBJD6p72lbv5u-25" value="DB B" style="text;html=1;strokeColor=none;fillColor=none;align=center;verticalAlign=middle;whiteSpace=wrap;rounded=0;shadow=1;" vertex="1" parent="1">
          <mxGeometry x="490" y="210" width="40" height="20" as="geometry" />
        </mxCell>
      </root>
    </mxGraphModel>
  </diagram>
</mxfile>
